HIERARCHY
ROOT Hips
{
	OFFSET 0.00000 0.00000 0.00000
	CHANNELS 6 Xposition Yposition Zposition Zrotation Yrotation Xrotation 
	JOINT LHipJoint
	{
		OFFSET 0 0 0
		CHANNELS 3 Zrotation Yrotation Xrotation
		JOINT LeftUpLeg
		{
			OFFSET 1.28366 -1.58472 0.87544
			CHANNELS 3 Zrotation Yrotation Xrotation
			JOINT LeftLeg
			{
				OFFSET 2.18587 -6.00562 0.00000
				CHANNELS 3 Zrotation Yrotation Xrotation
				JOINT LeftFoot
				{
					OFFSET 2.39085 -6.56880 0.00000
					CHANNELS 3 Zrotation Yrotation Xrotation
					JOINT LeftToeBase
					{
						OFFSET 0.12003 -0.32979 2.03101
						CHANNELS 3 Zrotation Yrotation Xrotation
						End Site
						{
							OFFSET 0.00000 -0.00000 1.04074
						}
					}
				}
			}
		}
	}
	JOINT RHipJoint
	{
		OFFSET 0 0 0
		CHANNELS 3 Zrotation Yrotation Xrotation
		JOINT RightUpLeg
		{
			OFFSET -1.21795 -1.58472 0.87544
			CHANNELS 3 Zrotation Yrotation Xrotation
			JOINT RightLeg
			{
				OFFSET -2.22714 -6.11902 0.00000
				CHANNELS 3 Zrotation Yrotation Xrotation
				JOINT RightFoot
				{
					OFFSET -2.40306 -6.60235 0.00000
					CHANNELS 3 Zrotation Yrotation Xrotation
					JOINT RightToeBase
					{
						OFFSET -0.15519 -0.42640 1.91430
						CHANNELS 3 Zrotation Yrotation Xrotation
						End Site
						{
							OFFSET -0.00000 -0.00000 0.99082
						}
					}
				}
			}
		}
	}
	JOINT LowerBack
	{
		OFFSET 0 0 0
		CHANNELS 3 Zrotation Yrotation Xrotation
		JOINT Spine
		{
			OFFSET 0.01180 1.76430 -0.06387
			CHANNELS 3 Zrotation Yrotation Xrotation
			JOINT Spine1
			{
				OFFSET -0.00388 1.74651 0.09536
				CHANNELS 3 Zrotation Yrotation Xrotation
				JOINT Neck
				{
					OFFSET 0 0 0
					CHANNELS 3 Zrotation Yrotation Xrotation
					JOINT Neck1
					{
						OFFSET 0.04111 1.46174 0.14397
						CHANNELS 3 Zrotation Yrotation Xrotation
						JOINT Head
						{
							OFFSET 0.00502 1.44580 -0.31711
							CHANNELS 3 Zrotation Yrotation Xrotation
							End Site
							{
								OFFSET -0.00395 1.49251 -0.12327
							}
						}
					}
				}
				JOINT LeftShoulder
				{
					OFFSET 0 0 0
					CHANNELS 3 Zrotation Yrotation Xrotation
					JOINT LeftArm
					{
						OFFSET 2.70917 1.34870 -0.15417
						CHANNELS 3 Zrotation Yrotation Xrotation
						JOINT LeftForeArm
						{
							OFFSET 4.46610 -0.00000 -0.00000
							CHANNELS 3 Zrotation Yrotation Xrotation
							JOINT LeftHand
							{
								OFFSET 3.41414 -0.00000 0.00000
								CHANNELS 3 Zrotation Yrotation Xrotation
								JOINT LeftFingerBase
								{
									OFFSET 0 0 0
									CHANNELS 3 Zrotation Yrotation Xrotation
									JOINT LeftHandIndex1
									{
										OFFSET 0.32830 -0.00000 0.00000
										CHANNELS 3 Zrotation Yrotation Xrotation
										End Site
										{
											OFFSET 0.26468 -0.00000 0.00000
										}
									}
								}
								JOINT LThumb
								{
									OFFSET 0 0 0
									CHANNELS 3 Zrotation Yrotation Xrotation
									End Site
									{
										OFFSET 0.26872 -0.00000 0.26872
									}
								}
							}
						}
					}
				}
				JOINT RightShoulder
				{
					OFFSET 0 0 0
					CHANNELS 3 Zrotation Yrotation Xrotation
					JOINT RightArm
					{
						OFFSET -3.06316 1.13725 -0.10883
						CHANNELS 3 Zrotation Yrotation Xrotation
						JOINT RightForeArm
						{
							OFFSET -4.40431 -0.00000 0.00000
							CHANNELS 3 Zrotation Yrotation Xrotation
							JOINT RightHand
							{
								OFFSET -3.04688 -0.00000 0.00000
								CHANNELS 3 Zrotation Yrotation Xrotation
								JOINT RightFingerBase
								{
									OFFSET 0 0 0
									CHANNELS 3 Zrotation Yrotation Xrotation
									JOINT RightHandIndex1
									{
										OFFSET -0.50049 -0.00000 0.00000
										CHANNELS 3 Zrotation Yrotation Xrotation
										End Site
										{
											OFFSET -0.40351 -0.00000 0.00000
										}
									}
								}
								JOINT RThumb
								{
									OFFSET 0 0 0
									CHANNELS 3 Zrotation Yrotation Xrotation
									End Site
									{
										OFFSET -0.40967 -0.00000 0.40967
									}
								}
							}
						}
					}
				}
			}
		}
	}
}
MOTION
Frames: 15
Frame Time: .0083333
2.6444 15.5934 8.0772 0 0 0 0 0 0 -21 0 0 0 0 0 0 0 0 0 0 0 0 0 0 21 0 0 0 0 0 0 0 0 0 0 0 0 0 0 0 0 0 0 0 0 0 0 -16 0 0 21 0 0 11 0 0 0 -8 0 0 0 0 0 0 0 0 0 0 0 0 0 0 0 0 0 0 0 0 8 0 0 0 0 0 0 0 0 0 0 0 0 0 0 0 0 0
2.6444 15.5934 8.0772 -174.0000 4.3173 -171.3170 0.0000 0.0000 0.0000 -10.4160 -2.4893 -30.1778 3.3096 11.1801 32.8896 0.1938 -0.1884 -8.2499 0.0318 1.1509 3.1642 0.0000 0.0000 0.0000 21.0624 4.8189 -17.5862 -4.3019 -12.5517 37.7128 -0.4366 7.9973 -12.2240 -0.0080 0.5770 -1.5855 0.5719 2.2184 4.8311 1.0561 3.0734 -1.9638 0.4976 1.5341 -4.7679 0.7519 1.5888 -21.3785 5.8903 -0.7739 26.5153 1.9089 0.1886 12.3783 0.0000 0.0000 0.0000 -78.3529 4.5023 48.9342 22.6189 -33.6694 -6.9258 -0.0000 0.0000 -12.7445 18.1782 11.9083 3.8762 -7.1250 0.0000 -0.0000 -8.1195 42.3520 0.5343 0.0000 0.0000 0.0000 89.8938 -20.1931 21.1310 -34.1038 44.1615 -14.1854 0.0000 -0.0000 -28.2357 -17.9793 -5.3024 1.7178 7.1250 -0.0000 -0.0000 7.2587 -35.4756 1.7099
2.5915 15.6021 8.0493 -174.1110 4.7867 -171.1620 0.0000 0.0000 0.0000 -10.7293 -2.6808 -29.9525 3.2777 11.1316 32.7249 0.1946 0.4689 -8.5151 0.0307 1.1307 3.1084 0.0000 0.0000 0.0000 20.6000 4.5388 -18.0645 -4.3704 -12.6377 38.0269 -0.3868 8.4878 -11.7531 -0.0100 0.6471 -1.7783 0.5758 2.2039 4.8837 0.9527 3.0491 -2.0127 0.3876 1.5190 -4.8426 0.7826 1.6393 -21.3468 5.8591 -0.6763 26.3487 1.9049 0.2336 12.3021 -0.0000 0.0000 0.0000 -76.2619 5.4591 52.8441 25.8569 -37.0670 -8.8012 -0.0000 0.0000 -14.3625 17.2643 10.6095 3.2749 -7.1250 0.0000 -0.0000 -8.6742 40.9244 0.8793 -0.0000 0.0000 0.0000 89.2325 -21.0340 23.2043 -36.6440 45.9510 -15.9836 0.0000 -0.0000 -28.2602 -15.1696 -4.1059 1.1121 7.1250 -0.0000 -0.0000 9.4130 -34.1168 2.5423
2.5575 15.6097 8.0279 -174.1020 5.0198 -170.9390 0.0000 0.0000 0.0000 -10.9098 -2.3248 -30.1571 3.2645 11.1114 32.6564 0.1980 0.2607 -8.5021 0.0296 1.1102 3.0521 0.0000 0.0000 0.0000 20.4105 4.2766 -18.5585 -4.4317 -12.7137 38.3061 -0.3456 8.7398 -11.3239 -0.0028 0.3439 -0.9450 0.4883 2.1596 4.9148 0.9265 2.9847 -2.0978 0.4119 1.4890 -4.9517 0.7766 1.6414 -21.3151 5.8609 -0.6496 26.1986 1.9080 0.2467 12.2353 0.0000 0.0000 0.0000 -74.1341 6.2260 56.3944 29.5044 -40.4648 -11.0866 -0.0000 0.0000 -14.9470 15.9194 10.0910 2.8610 -7.1250 0.0000 -0.0000 -9.7438 40.2760 1.1473 0.0000 0.0000 0.0000 89.2172 -21.8882 24.7996 -39.4966 47.7688 -18.0656 0.0000 -0.0000 -27.7354 -12.6818 -2.6001 0.5849 7.1250 -0.0000 -0.0000 11.2147 -32.5028 3.4900
2.5155 15.6174 8.0037 -174.1810 5.3974 -170.7110 0.0000 0.0000 0.0000 -11.1891 -2.2153 -30.2475 3.2542 11.0956 32.6030 0.2017 0.4327 -8.6512 0.0386 1.2677 3.4858 0.0000 0.0000 0.0000 20.0832 4.1036 -19.0380 -4.4905 -12.7859 38.5724 -0.3190 8.8747 -11.0351 -0.0029 0.3472 -0.9541 0.3547 2.1113 4.8584 0.8850 2.9092 -2.1606 0.4513 1.4551 -4.9891 0.8069 1.7073 -21.3263 5.8286 -0.5386 26.0912 1.9074 0.2977 12.1911 0.0000 -0.0000 0.0000 -72.0877 6.8177 59.4774 33.5741 -43.7667 -13.8176 -0.0000 0.0000 -15.2713 14.3075 8.8603 2.2495 -7.1250 0.0000 -0.0000 -10.8893 38.8984 1.6600 0.0000 -0.0000 0.0000 86.7616 -22.2710 28.6217 -42.6030 49.5387 -20.3982 0.0000 -0.0000 -29.3841 -16.9411 2.2968 -0.6994 7.1250 -0.0000 -0.0000 7.4101 -27.5558 3.1660
2.4810 15.6196 7.9845 -174.0510 5.7318 -170.6150 0.0000 0.0000 0.0000 -11.2424 -1.8414 -30.3373 3.2562 11.0987 32.6134 0.2044 0.3784 -8.6856 0.0359 1.2224 3.3610 0.0000 0.0000 0.0000 20.0950 3.8489 -19.3285 -4.5443 -12.8515 38.8150 -0.3217 8.6956 -11.0098 -0.0035 0.3796 -1.0429 0.4177 2.1338 4.8645 0.8727 2.9443 -2.1959 0.3991 1.4704 -5.0259 0.8452 1.7007 -21.3007 5.8014 -0.5556 26.0794 1.8869 0.2884 12.1820 0.0000 0.0000 0.0000 -69.8307 6.8761 63.1014 38.1151 -46.9127 -17.0496 -0.0000 0.0000 -16.6129 12.4916 8.8035 1.9419 -7.1250 0.0000 -0.0000 -12.4172 38.7073 1.9605 0.0000 0.0000 0.0000 85.6789 -22.6834 31.9223 -46.4785 51.4726 -23.3898 0.0000 -0.0000 -30.2211 -10.3343 -0.1864 0.0340 7.1250 -0.0000 -0.0000 12.7385 -30.0367 4.7575
2.4437 15.6238 7.9635 -174.0100 6.0792 -170.4570 0.0000 0.0000 0.0000 -11.3820 -1.5991 -30.4579 3.2628 11.1087 32.6474 0.2089 0.4051 -8.7883 0.0386 1.2681 3.4868 0.0000 0.0000 0.0000 19.9729 3.6000 -19.7049 -4.5966 -12.9146 39.0497 -0.3128 8.6222 -10.8711 -0.0047 0.4434 -1.2182 0.3996 2.1316 4.8344 0.8417 2.9395 -2.2486 0.3776 1.4682 -5.0630 1.2660 0.6722 -21.2765 5.4240 -0.1799 26.1413 1.8839 1.1371 12.1863 0.0000 0.0000 0.0000 -67.7207 6.9858 65.7694 43.0733 -49.7889 -20.7567 -0.0000 0.0000 -17.0059 10.7504 8.0634 1.5255 -7.1250 0.0000 -0.0000 -13.7254 37.8499 2.4721 0.0000 0.0000 0.0000 84.3521 -23.0130 34.8428 -50.4095 53.1593 -26.5015 0.0000 -0.0000 -30.8612 -8.4587 0.5932 -0.0882 7.1250 -0.0000 -0.0000 14.0779 -29.2370 5.5618
2.4079 15.6271 7.9439 -173.9620 6.4174 -170.3070 0.0000 0.0000 0.0000 -11.5066 -1.3499 -30.5990 3.2759 11.1287 32.7153 0.2136 0.4091 -8.8878 0.0411 1.3081 3.5970 0.0000 0.0000 0.0000 19.8885 3.3275 -20.0661 -4.6484 -12.9765 39.2806 -0.3143 8.4180 -10.8236 -0.0075 0.5599 -1.5385 0.3818 2.1367 4.7881 0.8123 2.9445 -2.3013 0.3573 1.4710 -5.0911 1.2738 0.6765 -21.2614 5.4275 -0.1802 26.1249 1.8828 1.1364 12.1770 0.0000 0.0000 0.0000 -65.6385 6.8795 68.2485 48.5842 -52.4083 -25.0478 -0.0000 0.0000 -17.4980 9.0491 7.5839 1.2041 -7.1250 0.0000 -0.0000 -15.0358 37.2663 2.9426 0.0000 0.0000 0.0000 82.9661 -23.1754 37.8062 -54.7298 54.7337 -29.9952 0.0000 -0.0000 -31.5517 -6.6734 1.2207 -0.1428 7.1250 -0.0000 -0.0000 15.3477 -28.5979 6.3388
2.3726 15.6296 7.9256 -173.9160 6.7526 -170.1670 0.0000 0.0000 0.0000 -11.6290 -1.1206 -30.7300 3.2886 11.1481 32.7811 0.2177 0.4304 -8.9788 0.0441 1.3547 3.7255 0.0000 0.0000 0.0000 19.8240 3.0216 -20.4243 -4.7036 -13.0420 39.5258 -0.3259 8.0832 -10.8691 -0.0128 0.7295 -2.0048 0.3639 2.1499 4.7240 0.7814 2.9605 -2.3548 0.3352 1.4793 -5.1098 1.2699 0.6670 -21.2480 5.4400 -0.1959 26.1444 1.8861 1.1314 12.1825 0.0000 -0.0000 0.0000 -63.5979 6.5483 70.5462 54.6183 -54.6964 -29.9042 -0.0000 0.0000 -18.1436 7.4241 7.2749 0.9453 -7.1250 0.0000 -0.0000 -16.3040 36.8619 3.3744 0.0000 -0.0000 0.0000 81.5298 -23.1473 40.7637 -59.4177 56.1528 -33.8571 0.0000 -0.0000 -32.2860 -4.9719 1.7167 -0.1493 7.1250 -0.0000 -0.0000 16.5547 -28.0936 7.0836
2.3384 15.6316 7.9090 -173.8770 7.0716 -170.0390 0.0000 0.0000 0.0000 -11.7495 -0.9198 -30.8557 3.3031 11.1702 32.8561 0.2213 0.4613 -9.0650 0.0471 1.4005 3.8516 0.0000 0.0000 0.0000 19.7781 2.6720 -20.7767 -4.7618 -13.1104 39.7832 -0.3452 7.6134 -10.9894 -0.0186 0.8808 -2.4208 0.3389 2.1662 4.6489 0.7511 2.9801 -2.4106 0.3179 1.4899 -5.1251 1.2542 0.6457 -21.2357 5.4567 -0.2228 26.1994 1.8925 1.1230 12.2025 0.0000 0.0000 0.0000 -61.6260 5.9899 72.6393 61.0723 -56.5890 -35.2347 -0.0000 0.0000 -18.8991 5.8093 7.1037 0.7208 -7.1250 0.0000 -0.0000 -17.5823 36.5954 3.7792 0.0000 0.0000 0.0000 80.1420 -22.9318 43.6260 -64.4048 57.3738 -38.0293 0.0000 -0.0000 -32.9857 -3.1408 2.0262 -0.1112 7.1250 -0.0000 -0.0000 17.8699 -27.7685 7.8439
2.3051 15.6332 7.8941 -173.8570 7.3718 -169.9280 0.0000 0.0000 0.0000 -11.8807 -0.7599 -30.9620 3.3178 11.1925 32.9320 0.2244 0.5114 -9.1481 0.0511 1.4584 4.0111 0.0000 0.0000 0.0000 19.7369 2.2707 -21.1202 -4.8245 -13.1833 40.0587 -0.3711 7.0032 -11.1820 -0.0240 0.9999 -2.7485 0.2974 2.1820 4.5697 0.7192 2.9980 -2.4670 0.3084 1.5001 -5.1395 1.2252 0.6151 -21.2277 5.4779 -0.2577 26.2879 1.9029 1.1124 12.2369 -0.0000 -0.0000 0.0000 -59.7405 5.2055 74.5271 67.8105 -58.0553 -40.9088 -0.0000 0.0000 -19.7712 4.2666 7.0476 0.5244 -7.1250 0.0000 -0.0000 -18.8187 36.4447 4.1418 -0.0000 -0.0000 0.0000 78.7540 -22.4922 46.4057 -69.6115 58.3695 -42.4397 0.0000 -0.0000 -33.7184 -1.6925 2.3859 -0.0705 7.1250 -0.0000 -0.0000 18.8789 -27.4020 8.5079
2.2731 15.6347 7.8808 -173.8470 7.6549 -169.8450 0.0000 0.0000 0.0000 -12.0129 -0.6364 -31.0321 3.3313 11.2130 33.0017 0.2269 0.5877 -9.2303 0.0551 1.5148 4.1665 0.0000 0.0000 0.0000 19.7080 1.8254 -21.4361 -4.8923 -13.2615 40.3554 -0.4008 6.2684 -11.4348 -0.0254 1.0288 -2.8281 0.2399 2.1963 4.4975 0.6932 3.0134 -2.5213 0.3139 1.5098 -5.1569 1.1908 0.5800 -21.2234 5.4920 -0.2935 26.4069 1.9125 1.1016 12.2840 -0.0000 -0.0000 0.0000 -57.9553 4.2129 76.1907 74.6404 -59.0895 -46.7388 -0.0000 0.0000 -20.6884 2.8121 7.0411 0.3450 -7.1250 0.0000 -0.0000 -19.9877 36.3461 4.4768 -0.0000 -0.0000 0.0000 77.3816 -21.8251 49.0802 -74.9399 59.1254 -46.9959 0.0000 -0.0000 -34.4956 -0.3179 2.6482 -0.0147 7.1250 -0.0000 -0.0000 19.8385 -27.1287 9.1292
2.2424 15.6362 7.8692 -173.8410 7.9183 -169.7920 0.0000 0.0000 0.0000 -12.1435 -0.5261 -31.0686 3.3428 11.2304 33.0608 0.2289 0.6673 -9.3047 0.0591 1.5686 4.3148 0.0000 0.0000 0.0000 19.6940 1.3378 -21.7158 -4.9655 -13.3449 40.6736 -0.4310 5.4470 -11.7324 -0.0207 0.9293 -2.5542 0.1822 2.2096 4.4348 0.6710 3.0275 -2.5717 0.3232 1.5189 -5.1757 1.1518 0.5406 -21.2232 5.4977 -0.3304 26.5488 1.9204 1.0900 12.3412 0.0000 -0.0000 0.0000 -56.2780 3.0179 77.6212 81.3338 -59.7143 -52.5021 -0.0000 0.0000 -21.5840 1.5408 7.0694 0.1897 -7.1250 0.0000 -0.0000 -21.0123 36.2908 4.7633 0.0000 -0.0000 0.0000 76.0422 -20.9279 51.6117 -80.2626 59.6387 -51.5774 0.0000 -0.0000 -35.2571 1.0173 2.8448 0.0505 7.1250 -0.0000 -0.0000 20.7705 -26.9167 9.7273
2.2136 15.6377 7.8586 -173.8260 8.1739 -169.7680 0.0000 0.0000 0.0000 -12.2534 -0.4350 -31.0627 3.3523 11.2445 33.1091 0.2305 0.7711 -9.3812 0.0625 1.6134 4.4385 0.0000 0.0000 0.0000 19.7099 0.8299 -21.9462 -5.0430 -13.4320 41.0080 -0.4604 4.5572 -12.0719 -0.0131 0.7390 -2.0308 0.1223 2.2233 4.3728 0.6601 3.0427 -2.6155 0.3456 1.5289 -5.1889 1.1142 0.5023 -21.2244 5.4874 -0.3609 26.7048 1.9236 1.0798 12.4041 -0.0000 -0.0000 0.0000 -54.7168 1.6534 78.8003 87.7015 -59.9800 -58.0096 -0.0000 0.0000 -22.4061 0.3718 7.0797 0.0458 -7.1250 0.0000 -0.0000 -21.9451 36.2238 5.0404 -0.0000 -0.0000 0.0000 74.7567 -19.8014 53.9920 -85.4486 59.9216 -56.0594 0.0000 -0.0000 -36.0114 2.2144 3.0033 0.1161 7.1250 -0.0000 -0.0000 21.6009 -26.7412 10.2704
2.1868 15.6392 7.8497 -173.8040 8.4071 -169.7850 0.0000 0.0000 0.0000 -12.3438 -0.3673 -31.0025 3.3596 11.2555 33.1466 0.2315 0.8920 -9.4571 0.0656 1.6526 4.5466 0.0000 0.0000 0.0000 19.7512 0.3035 -22.1077 -5.1236 -13.5217 41.3542 -0.4872 3.6316 -12.4440 -0.0055 0.4795 -1.3176 0.0658 2.2305 4.3369 0.6583 3.0497 -2.6505 0.3752 1.5348 -5.2079 1.0798 0.4685 -21.2263 5.4628 -0.3820 26.8665 1.9225 1.0723 12.4693 0.0000 0.0000 0.0000 -53.2577 0.1555 79.7052 93.6160 -59.9505 -63.1310 -0.0000 0.0000 -23.0915 -0.6466 7.0638 -0.0795 -7.1250 0.0000 -0.0000 -22.7463 36.1414 5.2997 0.0000 0.0000 0.0000 73.5210 -18.4529 56.2095 -90.4038 59.9994 -60.3497 0.0000 -0.0000 -36.7327 3.1873 3.1494 0.1753 7.1250 -0.0000 -0.0000 22.2665 -26.5810 10.7287
